# xmcd
# Copyright (C) 1995-1998 Ti Kan
#
# Track frame offsets:
#       150
#       15817
#       32004
#       53999
#       69338
#       88263
#       106438
#       127969
#       148912
#       170780
#
# Disc length: 2589 seconds
#
# Revision: 1
# Processed by: cddbd v1.5.2PL0 Copyright (c) Steve Scherf et al.
# Submitted via: CD-Transfer v1.0
#
DISCID=860a1b0a
DTITLE=Speziallieferung - Tür Zu Meiner Seele
DYEAR=12
DGENRE=
TTITLE0=Ewigkeit
TTITLE1=Friendesgericht
TTITLE2=Ich Lieb Dich So Wie Du Bist
TTITLE3=Koph Hoch
TTITLE4=Ich Bleib Ich
TTITLE5=Du Siehst Mich Nicht
TTITLE6=Es Ist Wie Es Ist
TTITLE7=Manchmal
TTITLE8=Tür Zu Meiner Seele
TTITLE9=Südtirol
EXTD=
EXTT0=
EXTT1=
EXTT2=
EXTT3=
EXTT4=
EXTT5=
EXTT6=
EXTT7=
EXTT8=
EXTT9=
PLAYORDER=
